<svg  xmlns="http://www.w3.org/2000/svg" xmlns:xlink="http://www.w3.org/1999/xlink" x="0px" y="0px"
	 viewBox="0 0 512 512" style="enable-background:new 0 0 512 512;" xml:space="preserve">
		<path d="M487.857,197.71c-15.559-15.573-36.261-24.149-58.29-24.149h-44.058c-3.547,0-6.743,2.136-8.1,5.412
			c-0.535,1.292-0.731,2.659-0.631,3.998h-26.167l-6.84-6.842c-1.645-1.645-3.875-2.568-6.2-2.568h-84.854
			c-3.547,0-6.742,2.136-8.1,5.412c-0.535,1.292-0.731,2.659-0.631,3.998h-26.177l-6.843-6.843
			c-1.644-1.644-3.874-2.567-6.199-2.567h-84.854c-3.545,0-6.742,2.136-8.1,5.412c-0.535,1.292-0.731,2.659-0.631,3.998H85.014
			l-6.187-6.187c-1.93-1.929-4.651-2.848-7.355-2.491C30.726,179.71,0,214.841,0,256.006c0,22.017,8.575,42.717,24.147,58.286
			c15.57,15.572,36.27,24.147,58.287,24.147h347.131c45.455,0,82.434-36.98,82.434-82.434
			C512,233.996,503.426,213.292,487.857,197.71z M391.286,200.505l8.719,8.719c3.191,3.197,3.195,8.393,0.005,11.582
			c-3.188,3.188-8.385,3.188-11.575,0l-20.296-20.301H391.286z M258.493,200.505l8.719,8.719c3.191,3.197,3.195,8.393,0.01,11.576
			c-3.196,3.191-8.393,3.194-11.582,0.005l-20.3-20.3H258.493z M125.689,200.505L125.689,200.505l8.725,8.725
			c1.551,1.55,2.404,3.609,2.403,5.797c-0.001,2.18-0.852,4.23-2.405,5.779c-1.543,1.543-3.597,2.394-5.782,2.394
			s-4.239-0.851-5.783-2.395l-20.3-20.3H125.689z M429.566,320.906H82.434c-17.333,0-33.63-6.751-45.888-19.012
			c-12.26-12.258-19.012-28.555-19.012-45.888c0-30.992,22.108-57.636,52.079-63.639l40.837,40.837
			c4.856,4.855,11.313,7.529,18.181,7.529c6.869,0,13.326-2.675,18.175-7.525c4.863-4.852,7.542-11.308,7.546-18.176
			c0.002-6.875-2.675-13.339-7.54-18.204l-5.736-5.735h60.057l42.109,42.109c10.018,10.018,26.333,10.02,36.374,0
			c10.019-10.019,10.023-26.333,0-36.374l-5.736-5.735h60.056l42.104,42.114c10.034,10.018,26.35,10.014,36.367-0.005
			c10.021-10.019,10.024-26.333,0-36.374l-5.736-5.735h22.893c17.344,0,33.639,6.751,45.886,19.008
			c12.263,12.272,19.015,28.574,19.015,45.903C494.466,291.793,465.352,320.906,429.566,320.906z"/>
</svg>
