<svg  xmlns="http://www.w3.org/2000/svg" xmlns:xlink="http://www.w3.org/1999/xlink" x="0px" y="0px"
	 viewBox="0 0 512 512" style="enable-background:new 0 0 512 512;" xml:space="preserve">
<g transform="translate(1 1)">
			<path d="M483.693,259.267h-80.269l-47.731-62.293c-23.04-30.72-59.733-48.64-98.133-48.64H109.933
				c-18.773,0-34.133,15.36-34.133,34.133v76.8H41.667V121.646c14.679-3.814,25.6-17.216,25.6-33.046
				c0-18.773-15.36-34.133-34.133-34.133C14.36,54.467-1,69.827-1,88.6c0,15.83,10.921,29.232,25.6,33.046v137.676
				C10.072,260.17-1,271.788-1,286.573v90.453c0,15.36,11.947,27.307,27.307,27.307h15.963c4.075,29.155,28.753,51.2,59.131,51.2
				c30.378,0,55.056-22.045,59.131-51.2h188.938c4.075,29.155,28.753,51.2,59.131,51.2s55.056-22.045,59.131-51.2h15.963
				c15.36,0,27.307-11.947,27.307-27.307v-40.96v-34.133v-15.36C511,271.213,499.053,259.267,483.693,259.267z M92.867,182.467
				c0-9.387,7.68-17.067,17.067-17.067h148.48c32.427,0,64,15.36,84.48,41.813L383,259.267h-80.615l-13.252-40.96
				c-4.267-13.653-18.773-20.48-32.427-16.213c-13.653,4.267-20.48,18.773-16.213,32.427l8.081,24.747h-65.555l-15.059-40.96
				c-1.707-6.827-6.827-11.947-12.8-14.507c-5.973-2.56-12.8-3.413-19.627-0.853c-13.653,4.267-20.48,18.773-15.36,32.427
				l8.462,23.893H92.867V182.467z M255.853,230.253c-1.707-5.12,0.853-9.387,5.12-11.093c5.12-1.707,9.387,0.853,11.093,5.12
				l11.947,34.987h-17.92L255.853,230.253z M135.533,230.253c-1.707-4.267,0.853-9.387,5.12-11.093c2.56-0.853,5.12-0.853,6.827,0
				c1.707,1.707,3.413,3.413,4.267,5.12l12.8,34.987h-17.92L135.533,230.253z M16.067,88.6c0-9.387,7.68-17.067,17.067-17.067
				c9.387,0,17.067,7.68,17.067,17.067s-7.68,17.067-17.067,17.067C23.747,105.667,16.067,97.987,16.067,88.6z M101.4,438.467
				c-23.893,0-42.667-18.773-42.667-42.667c0-23.893,18.773-42.667,42.667-42.667c23.893,0,42.667,18.773,42.667,42.667
				C144.067,419.693,125.293,438.467,101.4,438.467z M408.6,438.467c-23.893,0-42.667-18.773-42.667-42.667
				c0-23.893,18.773-42.667,42.667-42.667c23.893,0,42.667,18.773,42.667,42.667C451.267,419.693,432.493,438.467,408.6,438.467z
				 M483.693,387.267h-15.963c-4.075-29.155-28.753-51.2-59.131-51.2c-0.138,0-0.274,0.009-0.412,0.01
				c-0.148-0.001-0.294-0.01-0.441-0.01c-29.867,0-54.613,22.187-58.88,51.2H160.531c-3.821-27.339-25.761-48.416-53.528-50.936
				c-0.203-0.019-0.409-0.029-0.613-0.046c-0.699-0.056-1.397-0.114-2.103-0.147c-0.957-0.046-1.919-0.072-2.887-0.072
				s-1.93,0.026-2.887,0.072c-0.706,0.033-1.404,0.09-2.103,0.147c-0.204,0.017-0.41,0.027-0.613,0.046
				c-27.767,2.52-49.707,23.597-53.528,50.936H26.307c-5.973,0-10.24-4.267-10.24-10.24V319h25.6c5.12,0,8.533-3.413,8.533-8.533
				s-3.413-8.533-8.533-8.533h-25.6v-15.36c0-5.973,4.267-10.24,10.24-10.24h58.027h50.347h54.613h64.853h53.76h92.16h83.627
				c5.973,0,10.24,4.267,10.24,10.24v6.827h-17.067c-14.507,0-25.6,11.093-25.6,25.6s11.093,25.6,25.6,25.6h17.067v32.427
				C493.933,383,489.667,387.267,483.693,387.267z M493.933,310.467v17.067h-17.067c-5.12,0-8.533-3.413-8.533-8.533
				s3.413-8.533,8.533-8.533H493.933z"/>
			<path d="M101.4,387.267c-5.12,0-8.533,3.413-8.533,8.533c0,5.12,3.413,8.533,8.533,8.533s8.533-3.413,8.533-8.533
				C109.933,390.68,106.52,387.267,101.4,387.267z"/>
			<path d="M408.6,387.267c-5.12,0-8.533,3.413-8.533,8.533c0,5.12,3.413,8.533,8.533,8.533s8.533-3.413,8.533-8.533
				C417.133,390.68,413.72,387.267,408.6,387.267z"/>
			<path d="M297.667,301.933H255c-5.12,0-8.533,3.413-8.533,8.533V319c0,5.12,3.413,8.533,8.533,8.533s8.533-3.413,8.533-8.533h25.6
				c0,5.12,3.413,8.533,8.533,8.533S306.2,324.12,306.2,319v-8.533C306.2,305.347,302.787,301.933,297.667,301.933z"/>
		</g>
</svg>
