<svg xmlns="http://www.w3.org/2000/svg" xmlns:xlink="http://www.w3.org/1999/xlink" x="0px" y="0px" viewBox="0 0 512.256 512.256">
	<path d="M509.754,2.545c-3.337-3.328-8.73-3.328-12.066,0l-76.151,76.16c-1.468,1.22-2.526,2.927-2.944,4.83
		c-0.777,3.482,0.708,7.066,3.661,8.994c51.806,53.239,51.371,138.701-1.314,191.394l-28.237,28.245l-94.515-94.524l10.121-10.121
		c4.352,2.355,8.414,3.012,11.469,3.012c10.812,0,18.475-7.347,19.311-8.183l59.733-59.733c7.569-7.578,13.815-23.851,0-37.675
		c-6.767-6.767-13.722-8.183-18.364-8.183c-10.803,0-18.466,7.347-19.311,8.183l-59.725,59.733
		c-6.323,6.332-11.563,18.731-5.103,30.703l-10.197,10.197l-86.153-86.144l28.228-28.245
		c45.167-45.158,114.466-53.094,168.516-19.302c3.994,2.509,9.267,1.289,11.759-2.705c2.5-3.994,1.289-9.259-2.705-11.759
		c-60.826-38.033-138.812-29.116-189.636,21.7L45.6,249.739c-60.8,60.8-60.8,156.066,0,216.866
		c30.396,30.404,69.419,45.602,108.433,45.602s78.037-15.206,108.433-45.602l135.876-135.936c0.154-0.137,0.333-0.179,0.478-0.316
		c0.145-0.145,0.188-0.333,0.316-0.478l33.869-33.886c57.737-57.737,59.716-150.434,5.948-210.577l70.801-70.793
		C513.09,11.283,513.09,5.882,509.754,2.545z M313.487,176.753l59.733-59.733c0.026-0.034,3.49-3.192,7.236-3.192
		c0.768,0,3.098,0,6.289,3.192c5.751,5.743,2.432,10.982,0,13.525l-59.725,59.733c-0.034,0.034-3.49,3.192-7.245,3.192
		c-0.768,0-3.098,0-6.289-3.192C307.744,184.535,311.063,179.296,313.487,176.753z M250.4,454.539
		c-25.933,25.933-60.006,40.294-95.949,40.439c-36.48,0.145-70.554-14.216-96.785-40.439c-54.025-54.042-54.025-138.701,0-192.734
		L187.91,131.501l92.169,92.177l0.008,0.009h0.009l100.548,100.548L250.4,454.539z"/>
</svg>
