<svg xmlns="http://www.w3.org/2000/svg" xmlns:xlink="http://www.w3.org/1999/xlink" x="0px" y="0px"
	 viewBox="0 0 512.001 512.001" style="enable-background:new 0 0 512.001 512.001;" xml:space="preserve">
		<path d="M120.425,86.647c-1.82-2.045-4.426-3.215-7.165-3.215c-2.738,0-5.345,1.17-7.165,3.215
			C95.686,98.341,83.53,124.868,83.53,161.138s12.156,62.797,22.566,74.492c1.82,2.045,4.426,3.215,7.165,3.215
			c2.738,0,5.345-1.17,7.165-3.215c10.409-11.695,22.566-38.221,22.566-74.492S130.834,98.341,120.425,86.647z M113.153,211.696
			c-8.08-16.581-10.439-39.005-10.439-50.558c0-22.424,5.319-39.643,10.654-50.558c8.08,16.583,10.439,39.005,10.439,50.558
			C123.806,183.562,118.487,200.781,113.153,211.696z"/>
		<path d="M475.263,260.308c-4.415-2.931-10.367-1.732-13.297,2.681c-17.186,25.861-39.639,40.104-63.225,40.104H165.823
			c9.739-7.679,18.715-17.561,26.639-29.486c20.056-30.179,31.101-70.121,31.101-112.468c0-28.987-5.18-56.842-14.878-81.215
			c4.384-0.884,7.686-4.756,7.686-9.401c0-5.297-4.295-9.592-9.592-9.592h-6.964c-2.298-4.238-4.746-8.336-7.355-12.26
			c-7.924-11.924-16.9-21.807-26.639-29.486h46.808c5.297,0,9.592-4.295,9.592-9.592S217.927,0,212.629,0H113.26
			C83.043,0,54.915,17.285,34.058,48.67C14.002,78.849,2.957,118.79,2.957,161.138c0,0.038,0.001,0.077,0.001,0.115v341.156
			c0,5.297,4.295,9.592,9.592,9.592h285.484c5.299,0,9.592-4.295,9.592-9.592V344.653c0-5.297-4.293-9.592-9.592-9.592
			s-9.592,4.295-9.592,9.592v74.946h-4.29c-5.299,0-9.592,4.295-9.592,9.592c0,5.297,4.293,9.592,9.592,9.592h4.29v54.035h-266.3
			v-54.035h4.29c5.297,0,9.592-4.295,9.592-9.592c0-5.297-4.295-9.592-9.592-9.592h-4.29V252.25
			c3.527,7.534,7.488,14.696,11.915,21.358c20.857,31.385,48.984,48.67,79.202,48.67h285.48c30.217,0,58.345-17.285,79.202-48.67
			C480.875,269.194,479.675,263.241,475.263,260.308z M113.26,303.092c-23.585,0-46.038-14.242-63.224-40.104
			c-17.988-27.069-27.895-63.24-27.895-101.851c0-38.611,9.907-74.783,27.895-101.851c17.186-25.861,39.639-40.104,63.224-40.104
			s46.039,14.242,63.225,40.104c17.988,27.067,27.895,63.238,27.895,101.851c0,38.612-9.907,74.783-27.895,101.851
			C159.299,288.85,136.845,303.092,113.26,303.092z"/>
		<path d="M477.943,48.67C457.086,17.285,428.957,0,398.74,0H244.604c-5.297,0-9.592,4.295-9.592,9.592
			c0,5.297,4.295,9.592,9.592,9.592H398.74c23.584,0,46.038,14.242,63.225,40.104c0.382,0.574,0.738,1.177,1.113,1.759
			c-4.622,0.688-8.171,4.662-8.171,9.476c0,5.297,4.293,9.592,9.592,9.592h8.909c10.688,23.633,16.451,51.614,16.451,81.024
			c0,25.347-4.396,50.248-12.71,72.009c-1.892,4.949,0.588,10.494,5.536,12.384c1.127,0.431,2.283,0.634,3.421,0.634
			c3.862,0,7.502-2.348,8.963-6.171c9.142-23.926,13.975-51.194,13.975-78.858C509.043,118.79,498,78.849,477.943,48.67z"/>
		<path d="M277.405,60.93h-24.781c-5.297,0-9.592,4.295-9.592,9.592c0,5.297,4.295,9.592,9.592,9.592h24.781
			c5.299,0,9.592-4.295,9.592-9.592C286.997,65.224,282.704,60.93,277.405,60.93z"/>
		<path d="M348.03,60.93h-24.782c-5.299,0-9.592,4.295-9.592,9.592c0,5.297,4.293,9.592,9.592,9.592h24.782
			c5.299,0,9.592-4.295,9.592-9.592C357.622,65.224,353.329,60.93,348.03,60.93z"/>
		<path d="M418.654,60.93h-24.781c-5.299,0-9.592,4.295-9.592,9.592c0,5.297,4.293,9.592,9.592,9.592h24.781
			c5.299,0,9.592-4.295,9.592-9.592C428.246,65.224,423.953,60.93,418.654,60.93z"/>
		<path d="M167.683,419.597h-24.781c-5.297,0-9.592,4.295-9.592,9.592s4.295,9.592,9.592,9.592h24.781
			c5.297,0,9.592-4.295,9.592-9.592S172.98,419.597,167.683,419.597z"/>
		<path d="M238.308,419.597h-24.781c-5.297,0-9.592,4.295-9.592,9.592s4.295,9.592,9.592,9.592h24.781
			c5.297,0,9.592-4.295,9.592-9.592S243.605,419.597,238.308,419.597z"/>
		<path d="M97.058,419.597H72.278c-5.297,0-9.592,4.295-9.592,9.592s4.295,9.592,9.592,9.592h24.781
			c5.297,0,9.592-4.295,9.592-9.592S102.356,419.597,97.058,419.597z"/>
</svg>
