<svg xmlns="http://www.w3.org/2000/svg" xmlns:xlink="http://www.w3.org/1999/xlink" x="0px" y="0px"
	 viewBox="0 0 490 490" style="enable-background:new 0 0 490 490;" xml:space="preserve">
<path id="XMLID_1093_" d="M445,70H281.213l44.394-44.394c5.858-5.858,5.858-15.355,0-21.213c-5.857-5.858-15.355-5.858-21.213,0
	L245,63.787L185.607,4.394c-5.857-5.858-15.355-5.858-21.213,0c-5.858,5.858-5.858,15.355,0,21.213L208.787,70H45
	C20.187,70,0,90.187,0,115v270c0,24.813,20.187,45,45,45h185v30h-65c-8.284,0-15,6.716-15,15s6.716,15,15,15h160
	c8.284,0,15-6.716,15-15s-6.716-15-15-15h-65v-30h185c24.813,0,45-20.187,45-45V115C490,90.187,469.814,70,445,70z M460,385
	c0,8.271-6.729,15-15,15H45c-8.271,0-15-6.729-15-15v-15h430V385z M460,340H30V115c0-8.271,6.729-15,15-15h400
	c8.271,0,15,6.729,15,15V340z"/>
</svg>
