<svg xmlns="http://www.w3.org/2000/svg" xmlns:xlink="http://www.w3.org/1999/xlink" x="0px" y="0px"
	 viewBox="0 0 388.382 388.382" style="enable-background:new 0 0 388.382 388.382;" xml:space="preserve">
<path d="M50.704,118.814c-2.656-22.628,10.396-44.051,31.742-52.097c8.526-3.214,17.599-4.004,26.366-2.391
	c2.602-19.343,15.687-36.334,34.447-43.405c14.459-5.449,30.25-4.991,43.322,1.254c11.342,5.419,20.112,14.935,25.001,27.025
	c9.226-4.477,19.751-6.038,30.018-4.293c4.355,0.739,7.287,4.871,6.547,9.227c-0.74,4.356-4.866,7.286-9.227,6.547
	c-8.065-1.37-16.373,0.267-23.257,4.505c1.306,10.807-0.272,21.514-4.687,31.053c-1.856,4.01-6.615,5.751-10.62,3.9
	c-4.011-1.856-5.757-6.611-3.9-10.621c4.344-9.387,4.784-20.986,1.209-31.822c-3.203-9.702-9.421-16.993-17.982-21.084
	c-9.159-4.377-20.379-4.638-30.781-0.719c-15.716,5.925-25.771,21.739-24.449,38.459c0.221,2.8-1.043,5.511-3.329,7.143
	c-2.288,1.632-5.261,1.944-7.838,0.823c-8.041-3.498-16.989-3.723-25.197-0.628c-14.452,5.447-23.291,19.946-21.494,35.259
	c0.515,4.389-2.625,8.363-7.013,8.878c-0.316,0.037-0.632,0.056-0.942,0.056C54.638,125.882,51.182,122.885,50.704,118.814z
	 M179.978,270.395c8.159-1.308,15.871-4.666,22.374-9.664c3.653,3.153,7.878,5.606,12.508,7.237
	c4.166,1.465,8.735-0.722,10.203-4.889s-0.722-8.735-4.889-10.203c-4.392-1.547-8.166-4.35-10.913-8.105
	c-1.417-1.938-3.629-3.137-6.025-3.266c-2.389-0.127-4.726,0.823-6.343,2.598c-5.154,5.652-11.879,9.281-19.447,10.493
	c-18.244,2.925-35.492-9.545-38.419-27.802c-1.386-8.66,0.624-17.383,5.66-24.562c1.613-2.3,1.902-5.276,0.762-7.843
	c-1.14-2.566-3.543-4.348-6.33-4.691c-16.648-2.056-30.131-15.071-32.788-31.652c-3.31-20.653,10.8-40.149,31.453-43.459
	c10.005-1.607,20.034,0.784,28.241,6.725c8.208,5.94,13.612,14.723,15.217,24.731c0.405,2.519,0.558,5.074,0.452,7.597
	c-0.139,3.337,1.811,6.41,4.889,7.706c3.08,1.297,6.639,0.543,8.929-1.889c2.581-2.74,5.571-5.009,8.89-6.741
	c3.917-2.045,5.435-6.878,3.39-10.794c-2.045-3.917-6.879-5.435-10.794-3.39c-0.293,0.153-0.585,0.309-0.874,0.468
	c-3.055-12.346-10.296-23.108-20.717-30.65c-11.671-8.446-25.936-11.841-40.154-9.562c-29.364,4.706-49.425,32.425-44.72,61.789
	c3.172,19.795,17.2,36.016,35.634,42.438c-3.335,8.264-4.378,17.31-2.938,26.311c2.521,15.723,12.226,28.542,25.225,35.642
	c-3.886,8.09-10.763,15.144-19.391,19.755c-9.009,4.814-18.538,5.805-27.558,2.862c-9.654-3.15-17.959-10.7-22.787-20.715
	c-7.291-15.128-3.661-33.513,8.829-44.709c2.092-1.875,3.047-4.71,2.517-7.468c-0.531-2.759-2.469-5.036-5.106-6.002
	c-8.236-3.015-14.868-9.024-18.675-16.926c-6.707-13.912-3.104-30.506,8.761-40.353c3.4-2.821,3.869-7.865,1.048-11.265
	c-2.82-3.399-7.863-3.868-11.265-1.048c-17.535,14.551-22.863,39.064-12.957,59.612c3.956,8.211,9.979,15.04,17.438,19.919
	c-11.459,15.8-13.706,37.127-5.002,55.186c6.71,13.921,18.46,24.483,32.235,28.979c4.96,1.618,10.082,2.419,15.23,2.419
	c8.424,0,16.912-2.147,24.832-6.381c12.352-6.602,21.806-16.63,27.02-28.548C168.896,271.211,174.406,271.289,179.978,270.395z
	 M341.148,141.961l-21.46,183.119c-4.592,39.181-16.722,61.652-33.281,61.652c-16.159,0-27.972-21.714-32.408-59.573
	l-21.702-185.198c-1.531-13.059,2.729-25.986,11.993-36.4c7.647-8.596,18.047-14.691,29.252-17.414l-14.68-54.521
	c-1.149-4.267,1.378-8.656,5.645-9.805c4.267-1.147,8.656,1.379,9.805,5.645l9.241,34.318l15.579-57.861
	c1.148-4.267,5.539-6.797,9.805-5.645c4.267,1.148,6.794,5.538,5.645,9.805L293.866,87.02c13.461,1.764,26.279,8.418,35.286,18.541
	C338.418,115.976,342.679,128.902,341.148,141.961z M317.198,116.196c-7.602-8.545-18.994-13.646-30.476-13.646
	c-11.483,0-22.878,5.101-30.479,13.645c-6.187,6.954-9.048,15.443-8.057,23.903l0.308,2.626h35.223c4.418,0,8,3.582,8,8
	s-3.582,8-8,8H250.37l6.747,57.572h25.217c4.418,0,8,3.582,8,8s-3.582,8-8,8h-23.342l10.897,93
	c4.063,34.667,13.529,45.436,16.518,45.436c3.156,0,13.142-11.261,17.391-47.515l4.071-34.745h-10.495c-4.418,0-8-3.582-8-8
	s3.582-8,8-8h12.37l9.02-76.963h-32.041c-4.418,0-8-3.582-8-8s3.582-8,8-8h33.916l4.619-39.411
	C326.248,131.64,323.387,123.151,317.198,116.196z M208.548,293.963c-0.876-4.331-5.095-7.131-9.427-6.257
	c-4.331,0.876-7.132,5.096-6.257,9.427l17.146,84.832c0.768,3.796,4.104,6.417,7.833,6.417c0.525,0,1.059-0.053,1.594-0.16
	c4.331-0.876,7.132-5.096,6.257-9.427L208.548,293.963z M171.801,316.999c-0.876-4.331-5.104-7.126-9.427-6.257
	c-4.331,0.876-7.132,5.096-6.257,9.427l12.491,61.796c0.768,3.796,4.104,6.417,7.833,6.417c0.525,0,1.06-0.053,1.594-0.16
	c4.331-0.876,7.132-5.096,6.257-9.427L171.801,316.999z"/>
</svg>
